<svg xmlns="http://www.w3.org/2000/svg" width="1600" height="640" viewBox="0 0 1600 640" role="img" aria-label="Kavin Tech Notes hero banner">
  <defs>
    <linearGradient id="bg" x1="0" y1="0" x2="1" y2="1">
      <stop offset="0%" stop-color="#f8fbff"/>
      <stop offset="55%" stop-color="#ffffff"/>
      <stop offset="100%" stop-color="#f3f7ff"/>
    </linearGradient>
    <linearGradient id="accent" x1="0" y1="0" x2="1" y2="0">
      <stop offset="0%" stop-color="#2563eb"/>
      <stop offset="100%" stop-color="#1d4ed8"/>
    </linearGradient>
    <filter id="shadow" x="-20%" y="-20%" width="140%" height="140%">
      <feDropShadow dx="0" dy="10" stdDeviation="18" flood-opacity="0.12"/>
    </filter>
  </defs>

  <rect width="1600" height="640" fill="url(#bg)"/>

  <circle cx="1450" cy="120" r="160" fill="#dbeafe" opacity="0.55"/>
  <circle cx="220" cy="560" r="220" fill="#e0e7ff" opacity="0.42"/>

  <rect x="76" y="56" width="1448" height="72" rx="14" fill="#ffffff" stroke="#e5e7eb"/>
  <text x="112" y="101" font-family="Inter, Segoe UI, Arial, sans-serif" font-size="28" fill="#111827" font-weight="700">Kavin <tspan fill="#2563eb">Tech Notes</tspan></text>
  <text x="1300" y="101" font-family="JetBrains Mono, Consolas, monospace" font-size="18" fill="#6b7280">2026-06</text>

  <text x="120" y="236" font-family="Inter, Segoe UI, Arial, sans-serif" font-size="66" fill="#111827" font-weight="780">计算机科学知识库</text>
  <text x="120" y="286" font-family="Inter, Segoe UI, Arial, sans-serif" font-size="28" fill="#6b7280">Build deep knowledge, one topic at a time.</text>

  <g filter="url(#shadow)">
    <rect x="120" y="336" width="1240" height="220" rx="20" fill="#ffffff" stroke="#e5e7eb"/>
  </g>

  <g font-family="JetBrains Mono, Consolas, monospace" font-size="20" fill="#374151">
    <rect x="160" y="388" width="166" height="44" rx="10" fill="#eff6ff" stroke="#bfdbfe"/>
    <text x="188" y="417">C++ / STL</text>

    <rect x="346" y="388" width="214" height="44" rx="10" fill="#eff6ff" stroke="#bfdbfe"/>
    <text x="374" y="417">AI Engineering</text>

    <rect x="580" y="388" width="176" height="44" rx="10" fill="#eff6ff" stroke="#bfdbfe"/>
    <text x="608" y="417">Big Data</text>

    <rect x="776" y="388" width="196" height="44" rx="10" fill="#eff6ff" stroke="#bfdbfe"/>
    <text x="804" y="417">Architecture</text>

    <rect x="992" y="388" width="160" height="44" rx="10" fill="#eff6ff" stroke="#bfdbfe"/>
    <text x="1020" y="417">Linux</text>

    <rect x="1172" y="388" width="148" height="44" rx="10" fill="#eff6ff" stroke="#bfdbfe"/>
    <text x="1200" y="417">Debug</text>
  </g>

  <rect x="160" y="468" width="270" height="48" rx="12" fill="url(#accent)"/>
  <text x="212" y="499" font-family="Inter, Segoe UI, Arial, sans-serif" font-size="22" fill="#ffffff" font-weight="700">GitHub Pages</text>

  <text x="470" y="499" font-family="Inter, Segoe UI, Arial, sans-serif" font-size="22" fill="#4b5563">140+ Articles · 13 Domains · Searchable TOC</text>
</svg>
