<svg xmlns="http://www.w3.org/2000/svg" width="1600" height="920" viewBox="0 0 1600 920" role="img" aria-label="Directory style preview">
  <defs>
    <linearGradient id="bg2" x1="0" y1="0" x2="1" y2="1">
      <stop offset="0%" stop-color="#ffffff"/>
      <stop offset="100%" stop-color="#f8fafc"/>
    </linearGradient>
    <filter id="cardShadow" x="-20%" y="-20%" width="140%" height="150%">
      <feDropShadow dx="0" dy="8" stdDeviation="14" flood-opacity="0.1"/>
    </filter>
  </defs>

  <rect width="1600" height="920" fill="url(#bg2)"/>

  <text x="90" y="88" font-family="Inter, Segoe UI, Arial, sans-serif" font-size="46" fill="#111827" font-weight="760">README 目录预览</text>
  <text x="90" y="126" font-family="Inter, Segoe UI, Arial, sans-serif" font-size="24" fill="#6b7280">与主页一致的卡片式信息架构</text>

  <g filter="url(#cardShadow)">
    <rect x="90" y="172" width="680" height="312" rx="18" fill="#ffffff" stroke="#e5e7eb"/>
    <rect x="830" y="172" width="680" height="312" rx="18" fill="#ffffff" stroke="#e5e7eb"/>
    <rect x="90" y="516" width="680" height="312" rx="18" fill="#ffffff" stroke="#e5e7eb"/>
    <rect x="830" y="516" width="680" height="312" rx="18" fill="#ffffff" stroke="#e5e7eb"/>
  </g>

  <g font-family="Inter, Segoe UI, Arial, sans-serif" fill="#111827">
    <text x="128" y="232" font-size="30" font-weight="700">现代 C++ 与 STL</text>
    <text x="128" y="274" font-size="22" fill="#6b7280">语言核心、模板、并发、工具链</text>
    <text x="128" y="324" font-size="20" fill="#2563eb">20 篇文章</text>

    <text x="868" y="232" font-size="30" font-weight="700">AI 工程</text>
    <text x="868" y="274" font-size="22" fill="#6b7280">LLM、RAG、Agent、LLMOps</text>
    <text x="868" y="324" font-size="20" fill="#2563eb">18 篇文章</text>

    <text x="128" y="576" font-size="30" font-weight="700">大数据 / 数据工程</text>
    <text x="128" y="618" font-size="22" fill="#6b7280">建模、Spark/Flink、湖仓、治理</text>
    <text x="128" y="668" font-size="20" fill="#2563eb">14 篇文章</text>

    <text x="868" y="576" font-size="30" font-weight="700">系统与性能</text>
    <text x="868" y="618" font-size="22" fill="#6b7280">Linux、网络、调试、可观测性</text>
    <text x="868" y="668" font-size="20" fill="#2563eb">20+ 篇文章</text>
  </g>
</svg>
